<svg width="128" height="48" viewBox="0 0 128 48" fill="none" xmlns="http://www.w3.org/2000/svg">
<g clip-path="url(#clip0_195_6234)">
<path d="M93.187 44.6157C93.0587 44.4925 92.9112 44.3968 92.7419 44.3338C92.5726 44.2682 92.3869 44.2354 92.182 44.2354C91.9991 44.2354 91.8379 44.2627 91.6959 44.3202C91.5539 44.3776 91.4365 44.4515 91.3382 44.5473C91.2426 44.6403 91.1689 44.7497 91.117 44.8701C91.0651 44.9905 91.0405 45.1191 91.0405 45.2477C91.0405 45.4118 91.0651 45.5459 91.117 45.6581C91.1689 45.7702 91.2344 45.8605 91.3163 45.9344C91.3983 46.0083 91.4938 46.0685 91.5976 46.115C91.7041 46.1615 91.8106 46.2025 91.9199 46.2381C92.0291 46.2737 92.1356 46.3065 92.2421 46.3421C92.3486 46.3749 92.4415 46.4159 92.5234 46.4652C92.6053 46.5144 92.6709 46.5719 92.7228 46.643C92.7719 46.7141 92.7992 46.8044 92.7992 46.9166C92.7992 47.0178 92.7828 47.1081 92.7473 47.1929C92.7118 47.2778 92.6627 47.3462 92.5999 47.4036C92.5371 47.4638 92.4579 47.5076 92.365 47.5404C92.2722 47.5732 92.1684 47.5897 92.0482 47.5897C91.9554 47.5897 91.8707 47.5815 91.7942 47.5623C91.7178 47.5431 91.6522 47.5213 91.5922 47.4939C91.5321 47.4665 91.4802 47.4364 91.4338 47.4036C91.3873 47.3708 91.3464 47.3407 91.3109 47.3133C91.2754 47.286 91.2426 47.2641 91.2153 47.2449C91.188 47.2258 91.1607 47.2176 91.1388 47.2176L91.0733 47.2367L91.0241 47.2832L90.8794 47.5185C91.0187 47.6663 91.1852 47.7839 91.3791 47.8687C91.573 47.9563 91.7915 47.9973 92.0318 47.9973C92.2257 47.9973 92.4005 47.9672 92.5534 47.907C92.7064 47.8468 92.8347 47.7648 92.9412 47.6608C93.0477 47.5568 93.1269 47.4337 93.1815 47.2914C93.2362 47.1492 93.2635 46.9987 93.2635 46.8373C93.2635 46.6841 93.2389 46.5555 93.187 46.4515C93.1351 46.3475 93.0696 46.26 92.9877 46.1861C92.9057 46.1122 92.8101 46.0548 92.7064 46.0083C92.6026 45.9618 92.4934 45.918 92.3841 45.8824C92.2749 45.8441 92.1656 45.8085 92.0619 45.773C91.9581 45.7374 91.8625 45.6964 91.7806 45.6471C91.6987 45.5979 91.6304 45.5404 91.5812 45.4748C91.5321 45.4064 91.5048 45.3215 91.5048 45.2203C91.5048 45.141 91.5184 45.0644 91.5485 44.996C91.5785 44.9276 91.6195 44.8674 91.6768 44.8154C91.7342 44.7634 91.8052 44.7224 91.8898 44.6923C91.9745 44.6622 92.0728 44.6485 92.1848 44.6485C92.3022 44.6485 92.4032 44.6622 92.4852 44.6923C92.5671 44.7224 92.6381 44.7525 92.6982 44.788C92.7583 44.8236 92.8074 44.8564 92.8457 44.8838C92.8839 44.9139 92.9194 44.9276 92.9494 44.9276C92.974 44.9276 92.9958 44.9221 93.015 44.9084C93.0341 44.8947 93.0505 44.8756 93.0641 44.8509L93.1843 44.6157H93.187ZM89.8362 44.2764H86.9578V44.695H88.1512V47.959H88.6455V44.695H89.8362V44.2764ZM85.0789 46.498C85.0325 46.4296 84.9779 46.3776 84.9151 46.3421C85.0571 46.3092 85.1827 46.2627 85.2974 46.1971C85.4094 46.1341 85.5049 46.0575 85.5814 45.9672C85.6579 45.8769 85.718 45.7757 85.7589 45.6635C85.7999 45.5514 85.8217 45.4282 85.8217 45.2997C85.8217 45.1437 85.7944 45.0014 85.7425 44.8756C85.6907 44.7497 85.6087 44.643 85.4968 44.5527C85.3848 44.4624 85.2455 44.3968 85.0762 44.3475C84.9069 44.2983 84.7048 44.2764 84.4727 44.2764H83.4349V47.959H83.9292V46.4214H84.3061C84.3771 46.4214 84.429 46.4296 84.4617 46.4488C84.4945 46.4679 84.5273 46.4953 84.5546 46.5363L85.5077 47.8523C85.5514 47.9235 85.6169 47.959 85.707 47.959H86.1494L85.0762 46.4953L85.0789 46.498ZM83.9292 46.0603V44.6704H84.4727C84.7594 44.6704 84.9752 44.7251 85.1199 44.8373C85.2646 44.9494 85.3356 45.1136 85.3356 45.3325C85.3356 45.4392 85.3165 45.5377 85.2783 45.628C85.24 45.7183 85.1854 45.7949 85.109 45.8578C85.0325 45.9207 84.9424 45.9727 84.8331 46.0055C84.7239 46.0411 84.5956 46.0575 84.4508 46.0575H83.9265L83.9292 46.0603ZM81.2993 46.7278C81.2365 46.9057 81.1519 47.0589 81.0372 47.182C80.9252 47.3051 80.7887 47.4009 80.6275 47.4665C80.4664 47.5322 80.2862 47.565 80.0895 47.565C79.8929 47.565 79.7127 47.5322 79.5543 47.4665C79.3932 47.4009 79.2566 47.3051 79.1419 47.182C79.0272 47.0589 78.9398 46.9057 78.8797 46.7278C78.8169 46.55 78.7869 46.3448 78.7869 46.1204C78.7869 45.8961 78.8169 45.6909 78.8797 45.5103C78.9426 45.3297 79.0299 45.1793 79.1419 45.0534C79.2539 44.9276 79.3932 44.8345 79.5543 44.7661C79.7154 44.7005 79.8929 44.6649 80.0895 44.6649C80.2862 44.6649 80.4664 44.6977 80.6275 44.7661C80.7887 44.8318 80.9252 44.9276 81.0372 45.0534C81.1491 45.1765 81.2365 45.3297 81.2993 45.5103C81.3622 45.6909 81.3922 45.8934 81.3922 46.1204C81.3922 46.3475 81.3622 46.55 81.2993 46.7278ZM81.7718 45.3598C81.6844 45.13 81.5615 44.9303 81.4031 44.7634C81.2447 44.5965 81.0536 44.4679 80.8296 44.3749C80.6057 44.2819 80.3599 44.2354 80.0895 44.2354C79.8192 44.2354 79.5734 44.2819 79.3495 44.3749C79.1283 44.4679 78.9371 44.5965 78.776 44.7634C78.6176 44.9303 78.4947 45.13 78.4073 45.3598C78.3199 45.5897 78.2762 45.8441 78.2762 46.1204C78.2762 46.3968 78.3199 46.6485 78.4073 46.881C78.4947 47.1136 78.6176 47.3106 78.776 47.4748C78.9344 47.6389 79.1255 47.7702 79.3495 47.8605C79.5707 47.9535 79.8192 47.9973 80.0895 47.9973C80.3599 47.9973 80.6057 47.9508 80.8296 47.8605C81.0536 47.7702 81.2447 47.6389 81.4031 47.4748C81.5615 47.3079 81.6844 47.1109 81.7718 46.881C81.8592 46.6512 81.9029 46.3968 81.9029 46.1204C81.9029 45.8441 81.8592 45.5924 81.7718 45.3598ZM76.9026 44.6157C76.7742 44.4925 76.6267 44.3968 76.4574 44.3338C76.2881 44.2682 76.1024 44.2354 75.8976 44.2354C75.7146 44.2354 75.5535 44.2627 75.4115 44.3202C75.2695 44.3776 75.152 44.4515 75.0537 44.5473C74.9581 44.6403 74.8844 44.7497 74.8325 44.8701C74.7806 44.9905 74.7561 45.1191 74.7561 45.2477C74.7561 45.4118 74.7806 45.5459 74.8325 45.6581C74.8844 45.7702 74.95 45.8605 75.0319 45.9344C75.1138 46.0083 75.2094 46.0685 75.3132 46.115C75.4197 46.1615 75.5262 46.2025 75.6354 46.2381C75.7447 46.2737 75.8512 46.3065 75.9577 46.3421C76.0642 46.3749 76.157 46.4159 76.239 46.4652C76.3209 46.5144 76.3864 46.5719 76.4383 46.643C76.4875 46.7141 76.5148 46.8044 76.5148 46.9166C76.5148 47.0178 76.4984 47.1081 76.4629 47.1929C76.4274 47.2778 76.3782 47.3462 76.3154 47.4036C76.2526 47.4638 76.1734 47.5076 76.0806 47.5404C75.9877 47.5732 75.8839 47.5897 75.7638 47.5897C75.6709 47.5897 75.5863 47.5815 75.5098 47.5623C75.4333 47.5431 75.3678 47.5213 75.3077 47.4939C75.2476 47.4665 75.1957 47.4364 75.1493 47.4036C75.1029 47.3708 75.0619 47.3407 75.0264 47.3133C74.9909 47.286 74.9582 47.2641 74.9308 47.2449C74.9035 47.2258 74.8762 47.2176 74.8544 47.2176L74.7888 47.2367L74.7397 47.2832L74.5949 47.5185C74.7342 47.6663 74.9008 47.7839 75.0947 47.8687C75.2886 47.9563 75.5071 47.9973 75.7474 47.9973C75.9413 47.9973 76.1161 47.9672 76.269 47.907C76.4219 47.8468 76.5503 47.7648 76.6568 47.6608C76.7633 47.5568 76.8425 47.4337 76.8971 47.2914C76.9517 47.1492 76.979 46.9987 76.979 46.8373C76.979 46.6841 76.9545 46.5555 76.9026 46.4515C76.8507 46.3475 76.7851 46.26 76.7032 46.1861C76.6213 46.1122 76.5257 46.0548 76.4219 46.0083C76.3181 45.9618 76.2089 45.918 76.0997 45.8824C75.9904 45.8441 75.8812 45.8085 75.7774 45.773C75.6737 45.7374 75.5781 45.6964 75.4961 45.6471C75.4142 45.5979 75.3459 45.5404 75.2968 45.4748C75.2476 45.4064 75.2203 45.3215 75.2203 45.2203C75.2203 45.141 75.234 45.0644 75.264 44.996C75.2941 44.9276 75.335 44.8674 75.3924 44.8154C75.4497 44.7634 75.5207 44.7224 75.6054 44.6923C75.69 44.6622 75.7883 44.6485 75.9003 44.6485C76.0177 44.6485 76.1188 44.6622 76.2007 44.6923C76.2826 44.7224 76.3536 44.7525 76.4137 44.788C76.4738 44.8236 76.523 44.8564 76.5612 44.8838C76.5994 44.9139 76.6349 44.9276 76.665 44.9276C76.6896 44.9276 76.7114 44.9221 76.7305 44.9084C76.7496 44.8947 76.766 44.8756 76.7797 44.8509L76.8998 44.6157H76.9026ZM71.6155 47.5541V46.2983H73.0465V45.907H71.6155V44.6841H73.3824V44.2791H71.1158V47.9618H73.3824V47.5568H71.6155V47.5541ZM68.7262 46.498C68.6798 46.4296 68.6252 46.3776 68.5624 46.3421C68.7044 46.3092 68.83 46.2627 68.9447 46.1971C69.0566 46.1341 69.1522 46.0575 69.2287 45.9672C69.3052 45.8769 69.3652 45.7757 69.4062 45.6635C69.4472 45.5514 69.469 45.4282 69.469 45.2997C69.469 45.1437 69.4417 45.0014 69.3898 44.8756C69.3379 44.7497 69.256 44.643 69.144 44.5527C69.0321 44.4624 68.8928 44.3968 68.7235 44.3475C68.5542 44.2983 68.3521 44.2764 68.1199 44.2764H67.0822V47.959H67.5765V46.4214H67.9534C68.0244 46.4214 68.0762 46.4296 68.109 46.4488C68.1418 46.4679 68.1746 46.4953 68.2019 46.5363L69.155 47.8523C69.1987 47.9235 69.2642 47.959 69.3543 47.959H69.7967L68.7235 46.4953L68.7262 46.498ZM67.5765 46.0603V44.6704H68.1199C68.4067 44.6704 68.6224 44.7251 68.7672 44.8373C68.9119 44.9494 68.9829 45.1136 68.9829 45.3325C68.9829 45.4392 68.9638 45.5377 68.9256 45.628C68.8873 45.7183 68.8327 45.7949 68.7562 45.8578C68.6798 45.9207 68.5897 45.9727 68.4804 46.0055C68.3712 46.0411 68.2428 46.0575 68.0981 46.0575H67.5738L67.5765 46.0603ZM62.8438 47.1765C62.9558 47.0096 63.0432 46.8318 63.1033 46.643C63.1633 46.4542 63.1934 46.26 63.1961 46.063H62.9175C62.8875 46.063 62.8629 46.0712 62.8465 46.0903C62.8302 46.1095 62.8192 46.1341 62.8165 46.167C62.8056 46.2928 62.7783 46.4187 62.74 46.5445C62.7018 46.6704 62.6499 46.7908 62.5844 46.9084L61.5275 45.8304C61.462 45.7648 61.4074 45.7046 61.3609 45.6444C61.3145 45.5869 61.2763 45.5295 61.2462 45.472C61.2162 45.4146 61.1943 45.3598 61.1807 45.3051C61.167 45.2504 61.1588 45.1929 61.1588 45.1328C61.1588 45.0561 61.1725 44.985 61.1971 44.9193C61.2216 44.8537 61.2599 44.7962 61.309 44.747C61.3582 44.6977 61.4155 44.6594 61.4865 44.6321C61.5548 44.6047 61.634 44.591 61.7187 44.591C61.7979 44.591 61.8661 44.6047 61.9262 44.6293C61.9863 44.654 62.0355 44.6868 62.0764 44.7278C62.1174 44.7661 62.1529 44.8099 62.1802 44.8592C62.2075 44.9084 62.2266 44.9522 62.2375 44.9987C62.2649 45.0644 62.3058 45.0917 62.3632 45.078L62.6472 45.0206C62.639 44.9166 62.6144 44.8181 62.5653 44.7251C62.5188 44.6293 62.4533 44.5473 62.3741 44.4734C62.2949 44.3995 62.1966 44.3448 62.0874 44.301C61.9781 44.2572 61.8525 44.2354 61.7187 44.2354C61.5657 44.2354 61.4292 44.26 61.3063 44.3065C61.1834 44.353 61.0796 44.4187 60.995 44.498C60.9103 44.5801 60.8448 44.6758 60.7984 44.7853C60.7519 44.8947 60.7301 45.0124 60.7301 45.1382C60.7301 45.2723 60.7547 45.4009 60.8038 45.524C60.853 45.6471 60.9294 45.7784 61.0359 45.9098C60.9185 45.9618 60.812 46.0219 60.7164 46.0958C60.6181 46.167 60.5335 46.249 60.4625 46.3393C60.3914 46.4296 60.3341 46.5281 60.2931 46.6348C60.2522 46.7415 60.2331 46.8564 60.2331 46.9741C60.2331 47.1328 60.2658 47.2778 60.3286 47.4036C60.3915 47.5295 60.4761 47.6389 60.5799 47.7265C60.6837 47.814 60.8011 47.8824 60.9322 47.9289C61.0633 47.9754 61.1971 47.9973 61.3336 47.9973C61.5849 47.9973 61.8143 47.9508 62.0245 47.8605C62.2348 47.7675 62.4205 47.6444 62.5789 47.4884L62.9503 47.8633C62.9858 47.9016 63.0186 47.9262 63.0514 47.9371C63.0814 47.9481 63.1224 47.9563 63.1715 47.9563H63.6139L62.8438 47.1711V47.1765ZM62.3277 47.2395C62.213 47.3571 62.0792 47.4529 61.9262 47.5213C61.7733 47.5897 61.6012 47.628 61.4101 47.628C61.32 47.628 61.2326 47.6143 61.1479 47.5842C61.0633 47.5541 60.9868 47.5103 60.9185 47.4529C60.853 47.3954 60.7984 47.3243 60.7574 47.2395C60.7164 47.1546 60.6946 47.0561 60.6946 46.944C60.6946 46.7825 60.741 46.6348 60.8311 46.498C60.9212 46.3612 61.0578 46.2436 61.2408 46.1478L62.3249 47.2422L62.3277 47.2395ZM56.7348 44.6157C56.6064 44.4925 56.4589 44.3968 56.2896 44.3338C56.1203 44.2682 55.9346 44.2354 55.7298 44.2354C55.5468 44.2354 55.3857 44.2627 55.2437 44.3202C55.1017 44.3776 54.9842 44.4515 54.8859 44.5473C54.7903 44.6403 54.7166 44.7497 54.6647 44.8701C54.6128 44.9905 54.5883 45.1191 54.5883 45.2477C54.5883 45.4118 54.6128 45.5459 54.6647 45.6581C54.7166 45.7702 54.7821 45.8605 54.8641 45.9344C54.946 46.0083 55.0416 46.0685 55.1454 46.115C55.2519 46.1615 55.3584 46.2025 55.4676 46.2381C55.5768 46.2737 55.6833 46.3065 55.7899 46.3421C55.8964 46.3749 55.9892 46.4159 56.0711 46.4652C56.1531 46.5144 56.2186 46.5719 56.2705 46.643C56.3197 46.7141 56.347 46.8044 56.347 46.9166C56.347 47.0178 56.3306 47.1081 56.2951 47.1929C56.2596 47.2778 56.2104 47.3462 56.1476 47.4036C56.0848 47.4638 56.0056 47.5076 55.9128 47.5404C55.8199 47.5732 55.7161 47.5897 55.596 47.5897C55.5031 47.5897 55.4185 47.5815 55.342 47.5623C55.2655 47.5431 55.2 47.5213 55.1399 47.4939C55.0798 47.4665 55.0279 47.4364 54.9815 47.4036C54.9351 47.3708 54.8941 47.3407 54.8586 47.3133C54.8231 47.286 54.7903 47.2641 54.763 47.2449C54.7357 47.2258 54.7084 47.2176 54.6866 47.2176L54.621 47.2367L54.5719 47.2832L54.4271 47.5185C54.5664 47.6663 54.733 47.7839 54.9269 47.8687C55.1208 47.9563 55.3393 47.9973 55.5796 47.9973C55.7735 47.9973 55.9482 47.9672 56.1012 47.907C56.2541 47.8468 56.3825 47.7648 56.489 47.6608C56.5955 47.5568 56.6747 47.4337 56.7293 47.2914C56.7839 47.1492 56.8112 46.9987 56.8112 46.8373C56.8112 46.6841 56.7866 46.5555 56.7348 46.4515C56.6829 46.3475 56.6173 46.26 56.5354 46.1861C56.4535 46.1122 56.3579 46.0548 56.2541 46.0083C56.1503 45.9618 56.0411 45.918 55.9319 45.8824C55.8226 45.8441 55.7134 45.8085 55.6096 45.773C55.5058 45.7374 55.4103 45.6964 55.3283 45.6471C55.2464 45.5979 55.1781 45.5404 55.129 45.4748C55.0798 45.4064 55.0525 45.3215 55.0525 45.2203C55.0525 45.141 55.0662 45.0644 55.0962 44.996C55.1262 44.9276 55.1672 44.8674 55.2246 44.8154C55.2819 44.7634 55.3529 44.7224 55.4376 44.6923C55.5222 44.6622 55.6205 44.6485 55.7325 44.6485C55.8499 44.6485 55.951 44.6622 56.0329 44.6923C56.1148 44.7224 56.1858 44.7525 56.2459 44.788C56.306 44.8236 56.3552 44.8564 56.3934 44.8838C56.4316 44.9139 56.4671 44.9276 56.4972 44.9276C56.5217 44.9276 56.5436 44.9221 56.5627 44.9084C56.5818 44.8947 56.5982 44.8756 56.6119 44.8509L56.732 44.6157H56.7348ZM51.7727 47.5404V44.2764H51.2784V47.959H53.3648V47.5404H51.7754H51.7727ZM47.9904 47.5541V46.2983H49.4214V45.907H47.9904V44.6841H49.7573V44.2791H47.4906V47.9618H49.7573V47.5568H47.9904V47.5541ZM46.1279 44.2764H43.2495V44.695H44.4429V47.959H44.9372V44.695H46.1279V44.2764ZM41.671 46.7278C41.6082 46.9057 41.5236 47.0589 41.4089 47.182C41.2969 47.3051 41.1603 47.4009 40.9992 47.4665C40.8381 47.5322 40.6579 47.565 40.4612 47.565C40.2646 47.565 40.0844 47.5322 39.926 47.4665C39.7648 47.4009 39.6283 47.3051 39.5136 47.182C39.3989 47.0589 39.3115 46.9057 39.2514 46.7278C39.1886 46.55 39.1586 46.3448 39.1586 46.1204C39.1586 45.8961 39.1886 45.6909 39.2514 45.5103C39.3142 45.3297 39.4016 45.1793 39.5136 45.0534C39.6256 44.9276 39.7648 44.8345 39.926 44.7661C40.0871 44.7005 40.2646 44.6649 40.4612 44.6649C40.6579 44.6649 40.8381 44.6977 40.9992 44.7661C41.1603 44.8318 41.2969 44.9276 41.4089 45.0534C41.5208 45.1765 41.6082 45.3297 41.671 45.5103C41.7338 45.6909 41.7639 45.8934 41.7639 46.1204C41.7639 46.3475 41.7338 46.55 41.671 46.7278ZM42.1435 45.3598C42.0561 45.13 41.9332 44.9303 41.7748 44.7634C41.6164 44.5965 41.4252 44.4679 41.2013 44.3749C40.9774 44.2819 40.7316 44.2354 40.4612 44.2354C40.1909 44.2354 39.9451 44.2819 39.7211 44.3749C39.4999 44.4679 39.3088 44.5965 39.1477 44.7634C38.9893 44.9303 38.8664 45.13 38.779 45.3598C38.6916 45.5897 38.6479 45.8441 38.6479 46.1204C38.6479 46.3968 38.6916 46.6485 38.779 46.881C38.8664 47.1136 38.9893 47.3106 39.1477 47.4748C39.3061 47.6389 39.4972 47.7702 39.7211 47.8605C39.9424 47.9535 40.1909 47.9973 40.4612 47.9973C40.7316 47.9973 40.9774 47.9508 41.2013 47.8605C41.4252 47.7702 41.6164 47.6389 41.7748 47.4748C41.9332 47.3079 42.0561 47.1109 42.1435 46.881C42.2309 46.6512 42.2746 46.3968 42.2746 46.1204C42.2746 45.8441 42.2309 45.5924 42.1435 45.3598ZM36.6188 44.2764V45.918H34.6362V44.2764H34.1392V47.959H34.6362V46.2846H36.6188V47.959H37.1159V44.2764H36.6188Z" fill="black"/>
<path d="M7.55371 7.48017C7.22327 7.21478 6.8464 6.9959 6.42857 6.82079C6.01894 6.64843 5.59565 6.49248 5.16416 6.35021C4.73541 6.21067 4.31758 6.06566 3.91067 5.92339C3.51196 5.78112 3.15967 5.60876 2.84834 5.40356C2.54248 5.2011 2.29943 4.95759 2.11373 4.67305C1.93622 4.39945 1.84337 4.04651 1.84337 3.60328C1.84337 3.26676 1.90618 2.94938 2.0318 2.64569C2.15742 2.342 2.33766 2.07661 2.57798 1.84679C2.81557 1.61696 3.11597 1.43365 3.47645 1.29959C3.8342 1.16553 4.25204 1.09713 4.73541 1.09713C5.21878 1.09713 5.62022 1.15732 5.93701 1.27223C6.26745 1.39261 6.54054 1.5212 6.75355 1.658C6.97476 1.80027 7.14681 1.92886 7.2697 2.0383C7.4117 2.16416 7.5346 2.24624 7.6848 2.25171C7.76126 2.25171 7.83773 2.23256 7.90327 2.18878C7.96881 2.14774 8.01797 2.08482 8.0562 2.01642L8.33202 1.4829L8.26102 1.41176C7.78857 0.938441 7.2615 0.582763 6.68255 0.352941C6.10086 0.114911 5.44818 0 4.72995 0C4.08818 0 3.50923 0.101231 3.00128 0.303694C2.49606 0.506156 2.0673 0.774282 1.72048 1.11081C1.37365 1.44733 1.10875 1.83858 0.928511 2.27907C0.748271 2.71956 0.658151 3.17647 0.658151 3.6498C0.658151 4.24897 0.759194 4.75513 0.966744 5.171C1.16883 5.57592 1.44192 5.91519 1.77783 6.18878C2.10827 6.45691 2.48513 6.67852 2.90296 6.84815C3.3126 7.01505 3.73589 7.16826 4.17011 7.30506C4.59886 7.43913 5.01669 7.57592 5.42087 7.71819C5.81958 7.85499 6.17187 8.02736 6.48319 8.22709C6.78906 8.42681 7.03211 8.67032 7.21781 8.9658C7.39532 9.25034 7.4909 9.6197 7.4909 10.0821C7.4909 10.5089 7.41717 10.9056 7.2697 11.2777C7.12223 11.6498 6.91195 11.9672 6.63339 12.2353C6.35484 12.5034 6.01621 12.7168 5.60657 12.8755C5.20239 13.0315 4.73814 13.1108 4.2138 13.1108C3.83147 13.1108 3.49284 13.0725 3.1979 12.9986C2.8975 12.9248 2.6326 12.8317 2.40594 12.725C2.17654 12.6156 1.97445 12.4979 1.8024 12.3721C1.62489 12.2435 1.47469 12.1231 1.34907 12.0137C1.22072 11.9015 1.11148 11.8057 1.02136 11.7291C0.920318 11.6443 0.830198 11.5841 0.710038 11.5814C0.562568 11.5814 0.426023 11.658 0.333172 11.7784L0.32771 11.7839L0 12.301L0.0682729 12.3776C0.565299 12.9412 1.14698 13.3871 1.8106 13.7127C2.47967 14.041 3.27437 14.2025 4.18649 14.2025C4.89107 14.2025 5.52464 14.093 6.08175 13.8714C6.63612 13.6498 7.10584 13.3461 7.4909 12.9603C7.87596 12.5746 8.1709 12.1204 8.37299 11.6005C8.57507 11.0807 8.67612 10.5253 8.67612 9.93981C8.67612 9.36525 8.57507 8.87551 8.36752 8.47606C8.16271 8.08482 7.89234 7.75376 7.55644 7.48564L7.55371 7.48017Z" fill="black"/>
<path d="M23.109 1.23677C22.2624 0.508997 21.0253 0.15332 19.4114 0.15332H15.7683V14.0466H17.0218V8.56098H19.4114C20.1733 8.56098 20.8615 8.45702 21.4732 8.25182C22.0822 8.04388 22.6065 7.75387 23.038 7.37904C23.4695 7.00421 23.7999 6.55551 24.0293 6.03567C24.2587 5.51584 24.3734 4.94949 24.3734 4.3339C24.3734 3.00968 23.9556 1.96454 23.1117 1.23677H23.109ZM19.4114 7.49669H17.0218V1.20667H19.4114C20.6676 1.20667 21.5906 1.48574 22.1996 2.01926C22.8086 2.55551 23.1172 3.31338 23.1199 4.33116C23.1199 4.78807 23.0353 5.20667 22.866 5.58971C22.6966 5.97275 22.4563 6.3038 22.1423 6.58561C21.8282 6.86741 21.4432 7.08903 20.9816 7.25045C20.5256 7.41187 20.0012 7.49395 19.4141 7.49395L19.4114 7.49669Z" fill="black"/>
<path d="M31.1106 14.0466H31.2471H39.53V12.955H32.3723V7.54867H38.3284V6.47617H32.3723V1.24498H39.53V0.15332H31.1106V14.0466Z" fill="black"/>
<path d="M50.9726 7.26946C50.8606 7.13814 50.7486 7.0287 50.6339 6.94115C50.593 6.91105 50.5493 6.88643 50.5056 6.8618C50.5329 6.84539 50.5602 6.82897 50.5875 6.80982C50.6885 6.73321 50.8005 6.62924 50.9234 6.49792L57.0843 0.153185H55.9647C55.8227 0.153185 55.6943 0.175073 55.5823 0.229792C55.4758 0.281776 55.3721 0.363855 55.2628 0.473294L49.7764 6.12309C49.7109 6.18875 49.6481 6.24074 49.5935 6.28177C49.5388 6.32008 49.4788 6.35291 49.4159 6.37753C49.3559 6.40216 49.2849 6.41857 49.2057 6.42678C49.121 6.43499 49.02 6.44046 48.9025 6.44046H48.2307V0.134033H46.9772V14.0465H48.2307V7.48287H48.9681C49.1183 7.48287 49.2384 7.49108 49.3313 7.50476C49.4241 7.51844 49.4979 7.54306 49.5579 7.57042C49.6208 7.60052 49.6754 7.63608 49.7218 7.67986C49.7764 7.72911 49.8392 7.7893 49.9075 7.8577L55.6615 13.7483C55.7435 13.8276 55.8227 13.896 55.9019 13.9507C56.0166 14.0246 56.1558 14.0465 56.3333 14.0465H57.4503L50.9644 7.26946H50.9726Z" fill="black"/>
<path d="M61.918 1.26413H62.0546H66.7217V14.0466H67.9752V1.26413H72.7488V0.15332H61.918V1.26413Z" fill="black"/>
<path d="M84.2843 7.93444C84.2269 7.85784 84.1614 7.78944 84.0958 7.72651C84.5765 7.6499 85.0216 7.52952 85.4231 7.35168C85.9092 7.13827 86.3297 6.86194 86.6766 6.52541C87.0261 6.18889 87.2937 5.79491 87.4822 5.34894C87.6679 4.90024 87.7607 4.40777 87.7607 3.87151C87.7607 2.66768 87.3565 1.72651 86.5455 1.09176C85.7344 0.457014 84.5301 0.15332 82.9461 0.15332H79.3413V14.0466H80.5948V7.8852H82.2361C82.4873 7.8852 82.6676 7.91529 82.7604 7.95907C82.8615 8.00558 82.9598 8.08766 83.0608 8.21625L87.4139 13.7429C87.4931 13.8442 87.5778 13.9208 87.6733 13.9727C87.7689 14.0247 87.8809 14.0466 88.001 14.0466H89.1398L84.2843 7.93444ZM80.5975 1.20667H82.9488C84.1423 1.20667 85.0353 1.43923 85.6333 1.88246C86.2287 2.32295 86.5263 2.98779 86.5291 3.92897C86.5291 4.38861 86.4444 4.79354 86.2806 5.15195C86.1167 5.51037 85.8791 5.8168 85.5651 6.07398C85.251 6.33116 84.8632 6.53089 84.4017 6.67042C83.9402 6.80996 83.4131 6.88109 82.8232 6.88109H80.5975V1.20667Z" fill="black"/>
<path d="M104.31 8.71146C104.31 9.33253 104.217 9.90982 104.034 10.4433C103.851 10.9768 103.586 11.4365 103.24 11.825C102.893 12.2135 102.475 12.5172 101.975 12.7388C101.478 12.9577 100.916 13.0699 100.277 13.0699C99.6402 13.0699 99.0749 12.9577 98.5779 12.7361C98.0781 12.5117 97.6603 12.208 97.3189 11.8168C96.9748 11.4256 96.7127 10.9659 96.5297 10.4324C96.3467 9.89888 96.2539 9.32158 96.2539 8.70052V0.15332H94.9922V8.71146C94.9922 9.47753 95.1124 10.1944 95.3554 10.8619C95.5985 11.5295 95.948 12.1123 96.4068 12.6102C96.8656 13.1082 97.4227 13.5022 98.0754 13.784C98.7308 14.0685 99.4682 14.208 100.277 14.208C101.085 14.208 101.822 14.0658 102.478 13.784C103.13 13.5022 103.69 13.1109 104.146 12.6102C104.605 12.1123 104.955 11.5268 105.198 10.8619C105.441 10.1944 105.561 9.47753 105.561 8.71146V0.15332H104.307V8.71146H104.31Z" fill="black"/>
<path d="M126.321 0.15332C126.223 0.15332 126.138 0.161528 126.062 0.191624C125.963 0.229928 125.901 0.306535 125.841 0.402294L120.499 9.86878C120.447 9.95907 120.401 10.0548 120.36 10.1533C120.319 10.0603 120.275 9.97001 120.229 9.88246L114.737 0.402294C114.677 0.303799 114.608 0.227192 114.507 0.188888C114.431 0.161528 114.343 0.15332 114.245 0.15332H113.437V14.0466H114.565V2.32295L119.775 11.3599C119.833 11.4584 119.901 11.5377 119.988 11.5952C120.073 11.6526 120.174 11.68 120.278 11.68H120.431C120.537 11.68 120.638 11.6526 120.726 11.5952C120.813 11.5377 120.881 11.4584 120.933 11.3599L125.999 2.34757V14.0466H127.138V0.15332H126.318H126.321Z" fill="black"/>
<path d="M34.4751 20.807C35.8569 20.0273 37.4545 19.5813 39.1532 19.5813C44.4238 19.5813 48.6977 23.8631 48.6977 29.1435C48.6977 34.424 44.4238 38.7058 39.1532 38.7058C37.4545 38.7058 35.8569 38.2598 34.4751 37.4801V20.8043V20.807Z" fill="#3E909C"/>
<path d="M16.0661 19.6365V38.7637C21.3368 38.7637 25.6107 34.4819 25.6107 29.2015C25.6107 23.921 21.3368 19.6392 16.0661 19.6392V19.6365Z" fill="#22A9A3"/>
<path d="M0.057373 38.7087C3.33993 36.7908 5.54378 33.2258 5.54378 29.1465C5.54378 25.0644 3.33993 21.5021 0.057373 19.5842V38.7115V38.7087Z" fill="#52C3CB"/>
<path d="M92.802 20.8015C91.4256 20.0245 89.8389 19.5813 88.1457 19.5813C82.8997 19.5813 78.6449 23.8412 78.6449 29.0998C78.6449 34.3583 82.8969 38.6182 88.1457 38.6182C89.8362 38.6182 91.4256 38.175 92.802 37.398V20.8015Z" fill="#258963"/>
<path d="M101.669 29.097C101.669 34.3528 105.921 38.6155 111.17 38.6155V19.5813C105.924 19.5813 101.669 23.8412 101.669 29.0998V29.097Z" fill="#5CB74E"/>
<path d="M127.05 19.5813C123.784 21.491 121.591 25.0368 121.591 29.0998C121.591 33.1627 123.787 36.7085 127.05 38.6182V19.5813Z" fill="#8CC961"/>
<path d="M63.5866 38.6784C68.8504 38.6784 73.1175 34.4034 73.1175 29.1299C73.1175 23.8563 68.8504 19.5813 63.5866 19.5813C58.3229 19.5813 54.0557 23.8563 54.0557 29.1299C54.0557 34.4034 58.3229 38.6784 63.5866 38.6784Z" fill="#2C817E"/>
</g>
<defs>
<clipPath id="clip0_195_6234">
<rect width="127.14" height="48" fill="white"/>
</clipPath>
</defs>
</svg>
