<svg width="25" height="20" viewBox="0 0 25 20" fill="none" xmlns="http://www.w3.org/2000/svg">
<path d="M3.2998 2.725C3.2998 2.2675 3.48155 1.82874 3.80505 1.50524C4.12855 1.18174 4.56731 1 5.0248 1H19.9748C20.4323 1 20.8711 1.18174 21.1946 1.50524C21.5181 1.82874 21.6998 2.2675 21.6998 2.725V9.05H3.2998V2.725Z" stroke="#484848" stroke-width="2" stroke-linecap="round" stroke-linejoin="round"/>
<path d="M2.15002 15.95V18.25" stroke="#484848" stroke-width="2" stroke-linecap="round" stroke-linejoin="round"/>
<path d="M22.85 15.95V18.25" stroke="#484848" stroke-width="2" stroke-linecap="round" stroke-linejoin="round"/>
<path d="M15.375 6.17505H9.62502C9.16753 6.17505 8.72877 6.35679 8.40527 6.68029C8.08176 7.00379 7.90002 7.44255 7.90002 7.90005V9.05005H17.1V7.90005C17.1 7.44255 16.9183 7.00379 16.5948 6.68029C16.2713 6.35679 15.8325 6.17505 15.375 6.17505Z" stroke="#484848" stroke-width="2" stroke-linecap="round" stroke-linejoin="round"/>
<path d="M1 10.775C1 10.3176 1.18174 9.87879 1.50524 9.55529C1.82874 9.23179 2.2675 9.05005 2.725 9.05005H22.275C22.7325 9.05005 23.1713 9.23179 23.4948 9.55529C23.8183 9.87879 24 10.3176 24 10.775V15.95H1V10.775Z" stroke="#484848" stroke-width="2" stroke-linecap="round" stroke-linejoin="round"/>
</svg>
